<svg width="24" height="24" viewBox="0 0 24 24" fill="none" xmlns="http://www.w3.org/2000/svg">
<g id="Iconly/Bulk/Work">
<g id="Work">
<path id="Fill 1" opacity="0.4" d="M2.00024 11.0786C2.05024 13.4166 2.19024 17.4156 2.21024 17.8566C2.28124 18.7996 2.64224 19.7526 3.20424 20.4246C3.98624 21.3676 4.94924 21.7886 6.29224 21.7886C8.14824 21.7986 10.1942 21.7986 12.1812 21.7986C14.1762 21.7986 16.1122 21.7986 17.7472 21.7886C19.0712 21.7886 20.0642 21.3566 20.8362 20.4246C21.3982 19.7526 21.7592 18.7896 21.8102 17.8566C21.8302 17.4856 21.9302 13.1446 21.9902 11.0786H2.00024Z" fill="#FF8800"/>
<path id="Fill 4" d="M11.2454 15.3843V16.6783C11.2454 17.0923 11.5814 17.4283 11.9954 17.4283C12.4094 17.4283 12.7454 17.0923 12.7454 16.6783V15.3843C12.7454 14.9703 12.4094 14.6343 11.9954 14.6343C11.5814 14.6343 11.2454 14.9703 11.2454 15.3843Z" fill="#FF8800"/>
<path id="Fill 6" fill-rule="evenodd" clip-rule="evenodd" d="M10.2112 14.5565C10.1112 14.9195 9.76224 15.1515 9.38424 15.1015C6.83324 14.7455 4.39524 13.8405 2.33724 12.4815C2.12624 12.3435 2.00024 12.1075 2.00024 11.8555V8.38949C2.00024 6.28949 3.71224 4.58149 5.81724 4.58149H7.78424C7.97224 3.12949 9.20224 2.00049 10.7042 2.00049H13.2862C14.7872 2.00049 16.0182 3.12949 16.2062 4.58149H18.1832C20.2822 4.58149 21.9902 6.28949 21.9902 8.38949V11.8555C21.9902 12.1075 21.8632 12.3425 21.6542 12.4815C19.5922 13.8465 17.1442 14.7555 14.5762 15.1105C14.5412 15.1155 14.5072 15.1175 14.4732 15.1175C14.1342 15.1175 13.8312 14.8885 13.7462 14.5525C13.5442 13.7565 12.8212 13.1995 11.9902 13.1995C11.1482 13.1995 10.4332 13.7445 10.2112 14.5565ZM13.2862 3.50049H10.7042C10.0312 3.50049 9.46924 3.96049 9.30124 4.58149H14.6882C14.5202 3.96049 13.9582 3.50049 13.2862 3.50049Z" fill="#FF8800"/>
</g>
</g>
</svg>
