<svg width="18" height="19" viewBox="0 0 18 19" fill="none" xmlns="http://www.w3.org/2000/svg">
<g id="Group">
<path id="Vector" d="M13.5232 12.9628L16.7355 16.1742L15.6742 17.2355L12.4627 14.0233C11.2678 14.9812 9.78148 15.5022 8.24998 15.5C4.52398 15.5 1.49998 12.476 1.49998 8.75C1.49998 5.024 4.52398 2 8.24998 2C11.976 2 15 5.024 15 8.75C15.0022 10.2815 14.4811 11.7678 13.5232 12.9628ZM12.0187 12.4062C12.9706 11.4274 13.5021 10.1153 13.5 8.75C13.5 5.849 11.1502 3.5 8.24998 3.5C5.34898 3.5 2.99998 5.849 2.99998 8.75C2.99998 11.6503 5.34898 14 8.24998 14C9.6153 14.0022 10.9274 13.4706 11.9062 12.5187L12.0187 12.4062Z" fill="#CCCCCC"/>
</g>
</svg>
