<svg width="18" height="19" viewBox="0 0 18 19" fill="none" xmlns="http://www.w3.org/2000/svg">
<g id="sorting">
<g id="Group 159">
<path id="Vector 8 (Stroke)" fill-rule="evenodd" clip-rule="evenodd" d="M17.2812 13.1806C17.2812 12.6725 16.8694 12.2606 16.3613 12.2606L9.00129 12.2606C8.49319 12.2606 8.0813 12.6725 8.0813 13.1806C8.0813 13.6887 8.49319 14.1006 9.00129 14.1006L16.3613 14.1006C16.8694 14.1006 17.2812 13.6887 17.2812 13.1806Z" fill="#666666"/>
<path id="Vector 9 (Stroke)" fill-rule="evenodd" clip-rule="evenodd" d="M14.8301 9.49993C14.8301 8.99183 14.4182 8.57993 13.9101 8.57993L9.00344 8.57993C8.49534 8.57993 8.08345 8.99183 8.08345 9.49993C8.08345 10.008 8.49534 10.4199 9.00344 10.4199L13.9101 10.4199C14.4182 10.4199 14.8301 10.008 14.8301 9.49993Z" fill="#666666"/>
<path id="Vector 7 (Stroke)" fill-rule="evenodd" clip-rule="evenodd" d="M12.3711 5.82024C12.3711 5.31214 11.9592 4.90024 11.4511 4.90024L8.99778 4.90024C8.48968 4.90024 8.07778 5.31214 8.07778 5.82024C8.07778 6.32834 8.48968 6.74023 8.99778 6.74023L11.4511 6.74023C11.9592 6.74023 12.3711 6.32834 12.3711 5.82024Z" fill="#666666"/>
<path id="Vector 7 (Stroke)_2" fill-rule="evenodd" clip-rule="evenodd" d="M3.48054 14.1006C3.98864 14.1006 4.40054 13.6887 4.40054 13.1806V3.98064C4.40054 3.47254 3.98864 3.06064 3.48054 3.06064C2.97244 3.06064 2.56055 3.47254 2.56055 3.98064V13.1806C2.56055 13.6887 2.97244 14.1006 3.48054 14.1006Z" fill="#666666"/>
<path id="Vector 8 (Stroke)_2" fill-rule="evenodd" clip-rule="evenodd" d="M2.83015 15.671C3.18943 16.0302 3.77194 16.0302 4.13122 15.671L5.97121 13.831C6.33049 13.4717 6.33049 12.8892 5.97121 12.5299C5.61193 12.1706 5.02942 12.1706 4.67014 12.5299L3.48069 13.7194L2.29123 12.5299C1.93195 12.1706 1.34944 12.1706 0.990163 12.5299C0.630883 12.8892 0.630883 13.4717 0.990163 13.831L2.83015 15.671Z" fill="#666666"/>
</g>
</g>
</svg>
