<svg width="77" height="23" viewBox="0 0 77 23" fill="none" xmlns="http://www.w3.org/2000/svg">
<g id="Frame">
<path id="Vector" d="M68.787 0.456055H54.168C55.02 5.28205 59.703 9.82405 64.813 9.82405H76.452C76.594 9.39806 76.594 8.68805 76.594 8.26305C76.594 4.00405 73.045 0.456055 68.787 0.456055ZM55.445 10.6761V22.4561H62.542V16.2111H68.787C72.194 16.2111 75.174 13.7981 76.167 10.6761H55.445ZM30.465 0.456055V22.3141H36.71C36.71 22.3141 38.271 22.3141 39.123 20.7531C40.9778 17.1147 42.8228 13.4714 44.658 9.82305H45.51V22.3141H52.607V0.456055H46.362C46.362 0.456055 44.8 0.598055 43.949 2.01705C40.4 9.25705 38.413 12.9471 38.413 12.9471H37.562V0.456055H30.465ZM0.657959 22.4561V0.598055H7.75496C7.75496 0.598055 9.74196 0.598055 10.878 3.72105C13.716 11.9531 14 13.0881 14 13.0881C14 13.0881 14.568 11.1011 17.123 3.72105C18.258 0.598055 20.245 0.598055 20.245 0.598055H27.342V22.4561H20.245V10.6761H19.394L15.42 22.4561H12.297L8.32296 10.6761H7.46996V22.4561H0.657959Z" fill="white"/>
</g>
</svg>
