<svg width="20" height="22" viewBox="0 0 20 22" fill="none" xmlns="http://www.w3.org/2000/svg">
<g id="Calendar">
<path id="Line_200" opacity="0.4" d="M1.0918 8.40445H18.9157" stroke="#FF8800" stroke-width="1.5" stroke-linecap="round" stroke-linejoin="round"/>
<path id="Union" opacity="0.4" fill-rule="evenodd" clip-rule="evenodd" d="M4.80859 12.3096C4.80859 11.8954 5.14438 11.5596 5.55859 11.5596H5.56786C5.98207 11.5596 6.31786 11.8954 6.31786 12.3096C6.31786 12.7238 5.98207 13.0596 5.56786 13.0596H5.55859C5.14438 13.0596 4.80859 12.7238 4.80859 12.3096ZM10.0053 11.5596C9.5911 11.5596 9.25532 11.8954 9.25532 12.3096C9.25532 12.7238 9.5911 13.0596 10.0053 13.0596H10.0146C10.4288 13.0596 10.7646 12.7238 10.7646 12.3096C10.7646 11.8954 10.4288 11.5596 10.0146 11.5596H10.0053ZM14.4428 11.5596C14.0286 11.5596 13.6928 11.8954 13.6928 12.3096C13.6928 12.7238 14.0286 13.0596 14.4428 13.0596H14.452C14.8663 13.0596 15.202 12.7238 15.202 12.3096C15.202 11.8954 14.8663 11.5596 14.452 11.5596H14.4428ZM14.4428 15.446C14.0286 15.446 13.6928 15.7818 13.6928 16.196C13.6928 16.6103 14.0286 16.946 14.4428 16.946H14.452C14.8663 16.946 15.202 16.6103 15.202 16.196C15.202 15.7818 14.8663 15.446 14.452 15.446H14.4428ZM9.25532 16.196C9.25532 15.7818 9.5911 15.446 10.0053 15.446H10.0146C10.4288 15.446 10.7646 15.7818 10.7646 16.196C10.7646 16.6103 10.4288 16.946 10.0146 16.946H10.0053C9.5911 16.946 9.25532 16.6103 9.25532 16.196ZM5.55859 15.446C5.14438 15.446 4.80859 15.7818 4.80859 16.196C4.80859 16.6103 5.14438 16.946 5.55859 16.946H5.56786C5.98207 16.946 6.31786 16.6103 6.31786 16.196C6.31786 15.7818 5.98207 15.446 5.56786 15.446H5.55859Z" fill="#FF8800"/>
<path id="Line_207" d="M14.0433 1V4.29078" stroke="#FF8800" stroke-width="1.5" stroke-linecap="round" stroke-linejoin="round"/>
<path id="Line_208" d="M5.96515 1V4.29078" stroke="#FF8800" stroke-width="1.5" stroke-linecap="round" stroke-linejoin="round"/>
<path id="Path" fill-rule="evenodd" clip-rule="evenodd" d="M14.2383 2.5791H5.77096C2.83427 2.5791 1 4.21504 1 7.22213V16.2718C1 19.3261 2.83427 20.9999 5.77096 20.9999H14.229C17.175 20.9999 19 19.3545 19 16.3474V7.22213C19.0092 4.21504 17.1842 2.5791 14.2383 2.5791Z" stroke="#FF8800" stroke-width="1.5" stroke-linecap="round" stroke-linejoin="round"/>
</g>
</svg>
