<svg width="20" height="22" viewBox="0 0 20 22" fill="none" xmlns="http://www.w3.org/2000/svg">
<g id="Calendar">
<path id="Line_200" opacity="0.4" d="M1.09264 8.40445H18.9166" stroke="#FF8800" stroke-width="1.5" stroke-linecap="round" stroke-linejoin="round"/>
<path id="Union" opacity="0.4" fill-rule="evenodd" clip-rule="evenodd" d="M4.80789 12.3096C4.80789 11.8954 5.14368 11.5596 5.55789 11.5596H5.56716C5.98137 11.5596 6.31716 11.8954 6.31716 12.3096C6.31716 12.7238 5.98137 13.0596 5.56716 13.0596H5.55789C5.14368 13.0596 4.80789 12.7238 4.80789 12.3096ZM10.0046 11.5596C9.5904 11.5596 9.25462 11.8954 9.25462 12.3096C9.25462 12.7238 9.5904 13.0596 10.0046 13.0596H10.0139C10.4281 13.0596 10.7639 12.7238 10.7639 12.3096C10.7639 11.8954 10.4281 11.5596 10.0139 11.5596H10.0046ZM14.4421 11.5596C14.0279 11.5596 13.6921 11.8954 13.6921 12.3096C13.6921 12.7238 14.0279 13.0596 14.4421 13.0596H14.4513C14.8656 13.0596 15.2013 12.7238 15.2013 12.3096C15.2013 11.8954 14.8656 11.5596 14.4513 11.5596H14.4421ZM14.4421 15.446C14.0279 15.446 13.6921 15.7818 13.6921 16.196C13.6921 16.6103 14.0279 16.946 14.4421 16.946H14.4513C14.8656 16.946 15.2013 16.6103 15.2013 16.196C15.2013 15.7818 14.8656 15.446 14.4513 15.446H14.4421ZM9.25462 16.196C9.25462 15.7818 9.5904 15.446 10.0046 15.446H10.0139C10.4281 15.446 10.7639 15.7818 10.7639 16.196C10.7639 16.6103 10.4281 16.946 10.0139 16.946H10.0046C9.5904 16.946 9.25462 16.6103 9.25462 16.196ZM5.55789 15.446C5.14368 15.446 4.80789 15.7818 4.80789 16.196C4.80789 16.6103 5.14368 16.946 5.55789 16.946H5.56716C5.98137 16.946 6.31716 16.6103 6.31716 16.196C6.31716 15.7818 5.98137 15.446 5.56716 15.446H5.55789Z" fill="#FF8800"/>
<path id="Line_207" d="M14.0437 1V4.29078" stroke="#FF8800" stroke-width="1.5" stroke-linecap="round" stroke-linejoin="round"/>
<path id="Line_208" d="M5.9655 1V4.29078" stroke="#FF8800" stroke-width="1.5" stroke-linecap="round" stroke-linejoin="round"/>
<path id="Path" fill-rule="evenodd" clip-rule="evenodd" d="M14.2383 2.5791H5.77096C2.83427 2.5791 1 4.21504 1 7.22213V16.2718C1 19.3261 2.83427 20.9999 5.77096 20.9999H14.229C17.175 20.9999 19 19.3545 19 16.3474V7.22213C19.0092 4.21504 17.1842 2.5791 14.2383 2.5791Z" stroke="#FF8800" stroke-width="1.5" stroke-linecap="round" stroke-linejoin="round"/>
</g>
</svg>
