<svg width="24" height="24" viewBox="0 0 24 24" fill="none" xmlns="http://www.w3.org/2000/svg">
<g id="solar:fire-line-duotone">
<g id="Group">
<path id="Vector" d="M20 13.1108C20 20.2218 13.956 21.9998 10.933 21.9998C8.29 21.9998 3 20.2218 3 13.1108C3 10.3288 4.461 8.4608 5.86 7.3948C6.638 6.8008 7.63 7.3918 7.73 8.3658L7.816 9.2038C7.921 10.2238 8.849 11.0608 9.709 10.5018C11.394 9.4068 12 6.7748 12 5.3328V5.0098C12 3.5798 13.444 2.6598 14.602 3.4978C17.165 5.3498 20 8.5838 20 13.1098V13.1108Z" stroke="#FF8800" stroke-width="1.5"/>
<path id="Vector_2" opacity="0.5" d="M8 18.4448C8 21.2888 10.489 21.9998 11.733 21.9998C12.823 21.9998 15 21.2888 15 18.4448C15 17.3428 14.41 16.5998 13.84 16.1708C13.442 15.8718 12.883 16.1408 12.746 16.6198C12.568 17.2438 11.923 17.6358 11.594 17.0758C11.294 16.5638 11.294 15.7958 11.294 15.3328C11.294 14.6968 10.654 14.2848 10.139 14.6588C9.106 15.4088 8 16.6798 8 18.4448Z" stroke="#FF8800" stroke-width="1.5"/>
</g>
</g>
</svg>
