<svg width="131" height="23" viewBox="0 0 131 23" fill="none" xmlns="http://www.w3.org/2000/svg">
<g id="Frame">
<path id="Vector" d="M57.077 15.2069V10.6569C57.077 8.92794 55.937 7.77594 54.101 7.77594C53.119 7.77594 52.138 8.04894 51.441 9.07994C50.903 8.25994 50.08 7.77594 48.941 7.77594C48.117 7.77594 47.325 8.01794 46.724 8.86694V7.95694H45.077V15.2069H46.755V11.1729C46.755 9.89894 47.484 9.23094 48.623 9.23094C49.732 9.23094 50.27 9.92894 50.27 11.1419V15.1769H51.948V11.1729C51.948 9.89894 52.708 9.23094 53.816 9.23094C54.956 9.23094 55.494 9.92894 55.494 11.1419V15.1769H57.077V15.2069ZM81.709 7.95694H79.018V5.74394H77.34V7.95894H75.789V9.41394H77.34V12.7209C77.34 14.4189 78.037 15.4209 79.968 15.4209C80.696 15.4209 81.519 15.2079 82.026 14.8439L81.551 13.4789C81.044 13.7519 80.506 13.9039 80.094 13.9039C79.271 13.9039 78.986 13.4179 78.986 12.6899V9.38294H81.677V7.95794H81.709V7.95694ZM95.767 7.77594C94.817 7.77594 94.184 8.19994 93.772 8.83694V7.95694H92.126V15.2069H93.772V11.1419C93.772 9.92894 94.31 9.26194 95.387 9.26194C95.735 9.26194 96.083 9.32194 96.431 9.44394L96.938 7.95794C96.5591 7.83843 96.1643 7.77707 95.767 7.77594ZM74.522 8.53394C73.731 8.01794 72.622 7.77594 71.419 7.77594C69.489 7.77594 68.253 8.65594 68.253 10.1109C68.253 11.2939 69.171 12.0219 70.881 12.2649L71.673 12.3849C72.591 12.5069 73.003 12.7499 73.003 13.1449C73.003 13.7199 72.401 14.0239 71.261 14.0239C70.121 14.0239 69.298 13.6599 68.728 13.2659L67.937 14.5089C68.855 15.1459 69.995 15.4489 71.229 15.4489C73.414 15.4489 74.68 14.4489 74.68 13.0839C74.68 11.8099 73.667 11.1419 72.02 10.8999L71.23 10.7779C70.501 10.6879 69.931 10.5359 69.931 10.0499C69.931 9.50394 70.469 9.20094 71.388 9.20094C72.369 9.20094 73.288 9.56494 73.762 9.83794L74.522 8.53394ZM118.689 7.77594C117.739 7.77594 117.106 8.19994 116.695 8.83694V7.95694H115.048V15.2069H116.695V11.1419C116.695 9.92894 117.233 9.26194 118.309 9.26194C118.658 9.26194 119.006 9.32194 119.354 9.44394L119.861 7.95794C119.482 7.83845 119.087 7.77709 118.689 7.77594ZM97.445 11.5669C97.445 13.7809 99.059 15.3889 101.497 15.3889C102.637 15.3889 103.397 15.1459 104.22 14.5089L103.429 13.2349C102.795 13.6599 102.162 13.9029 101.434 13.9029C100.104 13.9029 99.154 12.9629 99.154 11.5669C99.154 10.1719 100.136 9.26194 101.434 9.23094C102.162 9.23094 102.795 9.47394 103.429 9.89894L104.22 8.62494C103.397 7.98794 102.637 7.74494 101.497 7.74494C99.059 7.77494 97.445 9.38294 97.445 11.5669ZM112.895 11.5669V7.92694H111.249V8.80694C110.711 8.13994 109.919 7.74494 108.843 7.74494C106.721 7.74494 105.043 9.35294 105.043 11.5669C105.043 13.7809 106.721 15.3889 108.843 15.3889C109.919 15.3889 110.711 14.9639 111.249 14.3269V15.2069H112.895V11.5669ZM106.753 11.5669C106.753 10.2929 107.64 9.23094 109.064 9.23094C110.426 9.23094 111.344 10.2319 111.344 11.5669C111.344 12.9019 110.426 13.9019 109.064 13.9019C107.64 13.9019 106.753 12.8409 106.753 11.5669ZM86.838 7.77594C84.622 7.77594 83.071 9.32194 83.071 11.5969C83.071 13.9029 84.685 15.4189 86.965 15.4189C88.105 15.4189 89.149 15.1459 90.068 14.3879L89.245 13.2049C88.6059 13.6879 87.829 13.9535 87.028 13.9629C85.952 13.9629 85.002 13.4779 84.748 12.1729H90.384C90.416 11.9609 90.416 11.7789 90.416 11.5669C90.448 9.32194 88.96 7.77594 86.838 7.77594ZM86.807 9.17094C87.883 9.17094 88.548 9.80794 88.737 10.9299H84.812C84.97 9.89894 85.635 9.17094 86.807 9.17094ZM128.188 11.5669V5.04594H126.541V8.83694C126.003 8.16994 125.211 7.77594 124.135 7.77594C122.014 7.77594 120.336 9.38294 120.336 11.5969C120.336 13.8119 122.014 15.4189 124.135 15.4189C125.211 15.4189 126.003 14.9939 126.541 14.3569V15.2369H128.188V11.5669ZM130.119 14.5399C130.184 14.5351 130.249 14.5454 130.309 14.5699C130.372 14.5999 130.435 14.6299 130.467 14.6599C130.499 14.6909 130.562 14.7519 130.562 14.8119C130.594 14.8729 130.594 14.9339 130.594 14.9949C130.594 15.0549 130.594 15.1149 130.562 15.1769C130.53 15.2369 130.499 15.2669 130.467 15.3279C130.418 15.365 130.365 15.3956 130.309 15.4189C130.245 15.4489 130.182 15.4489 130.119 15.4489C130.056 15.4489 129.992 15.4489 129.929 15.4189C129.866 15.3889 129.802 15.3589 129.771 15.3289C129.732 15.2831 129.7 15.2319 129.676 15.1769C129.644 15.1159 129.644 15.0549 129.644 14.9949C129.644 14.9339 129.644 14.8729 129.676 14.8129C129.707 14.7519 129.739 14.7219 129.771 14.6609C129.802 14.6309 129.866 14.6009 129.929 14.5699C129.992 14.5399 130.056 14.5399 130.119 14.5399ZM130.119 15.3589C130.182 15.3589 130.214 15.3589 130.277 15.3289C130.309 15.2979 130.372 15.2979 130.404 15.2369C130.435 15.2069 130.467 15.1769 130.499 15.1159C130.53 15.0859 130.53 15.0249 130.53 14.9639C130.53 14.9039 130.53 14.8739 130.499 14.8119C130.467 14.7819 130.467 14.7219 130.404 14.6919C130.367 14.654 130.324 14.6229 130.277 14.5999C130.245 14.5699 130.182 14.5699 130.119 14.5699C130.056 14.5699 130.024 14.5699 129.961 14.5999C129.929 14.6299 129.866 14.6299 129.834 14.6909C129.795 14.7251 129.763 14.7661 129.739 14.8119C129.707 14.8419 129.707 14.9029 129.707 14.9639C129.707 15.0239 129.707 15.0549 129.739 15.1159C129.771 15.1459 129.771 15.2059 129.834 15.2369C129.866 15.2669 129.897 15.2969 129.961 15.3279C130.024 15.3579 130.056 15.3579 130.119 15.3579V15.3589ZM130.15 14.7819C130.214 14.7819 130.245 14.7819 130.277 14.8119C130.309 14.8419 130.309 14.8729 130.309 14.9029C130.309 14.9329 130.309 14.9639 130.277 14.9939C130.245 15.0239 130.214 15.0239 130.182 15.0239L130.34 15.1769H130.214L130.087 15.0249H130.024V15.1769H129.929V14.7519H130.15V14.7819ZM130.024 14.8729V14.9949H130.182L130.214 14.9649C130.214 14.9339 130.214 14.9339 130.182 14.9339H130.024V14.8729ZM122.045 11.5669C122.045 10.2929 122.932 9.23094 124.357 9.23094C125.718 9.23094 126.636 10.2319 126.636 11.5669C126.636 12.9019 125.718 13.9019 124.357 13.9019C122.932 13.9019 122.045 12.8409 122.045 11.5669ZM66.354 11.5669V7.92694H64.707V8.80694C64.169 8.13994 63.377 7.74494 62.301 7.74494C60.18 7.74494 58.501 9.35294 58.501 11.5669C58.501 13.7809 60.18 15.3889 62.301 15.3889C63.377 15.3889 64.169 14.9639 64.707 14.3269V15.2069H66.354V11.5669ZM60.211 11.5669C60.211 10.2929 61.098 9.23094 62.523 9.23094C63.884 9.23094 64.803 10.2319 64.803 11.5669C64.803 12.9019 63.884 13.9019 62.523 13.9019C61.098 13.9019 60.211 12.8409 60.211 11.5669ZM18.007 20.3929C18.102 20.4539 18.197 20.5449 18.292 20.6059C16.408 21.7998 14.2224 22.4312 11.992 22.4259C5.69199 22.4259 0.593994 17.5419 0.593994 11.5059C0.593994 5.46994 5.68999 0.585938 11.992 0.585938C14.335 0.585938 16.488 1.25394 18.292 2.40594C18.197 2.46694 18.102 2.55794 18.007 2.61894C15.317 4.86394 13.797 8.07894 13.797 11.5059C13.797 14.9339 15.317 18.1789 18.007 20.3929ZM26.05 0.616937C23.707 0.616937 21.554 1.28494 19.75 2.43694C19.845 2.49694 19.94 2.58894 20.035 2.64894C22.725 4.89394 24.245 8.10894 24.245 11.5369C24.245 14.9339 22.695 18.1789 20.035 20.4239C19.94 20.4839 19.845 20.5759 19.75 20.6359C21.634 21.8298 23.8196 22.4612 26.05 22.4559C32.35 22.4559 37.448 17.5729 37.448 11.5359C37.447 5.50194 32.35 0.616937 26.05 0.616937ZM19.02 2.95294C18.862 3.07394 18.735 3.16494 18.577 3.28594C16.171 5.28794 14.651 8.22994 14.651 11.5359C14.651 14.8129 16.171 17.7849 18.577 19.7859C18.704 19.9079 18.862 20.0289 19.02 20.1199C19.179 19.9999 19.305 19.9079 19.464 19.7869C21.87 17.7849 23.39 14.8429 23.39 11.5369C23.39 8.26094 21.87 5.28794 19.464 3.28694C19.305 3.16494 19.179 3.07394 19.02 2.95294Z" fill="white"/>
</g>
</svg>
