<svg width="18" height="21" viewBox="0 0 18 21" fill="none" xmlns="http://www.w3.org/2000/svg">
<g id="Shield Done">
<path id="Stroke 1" fill-rule="evenodd" clip-rule="evenodd" d="M15.865 3.12352C16.302 3.27652 16.594 3.68852 16.594 4.15152V10.9245C16.594 12.8175 15.906 14.6245 14.691 16.0245C14.08 16.7295 13.307 17.2785 12.486 17.7225L8.928 19.6445L5.364 17.7215C4.542 17.2775 3.768 16.7295 3.156 16.0235C1.94 14.6235 1.25 12.8155 1.25 10.9205V4.15152C1.25 3.68852 1.542 3.27652 1.979 3.12352L8.561 0.810523C8.795 0.728523 9.05 0.728523 9.283 0.810523L15.865 3.12352Z" stroke="#FF8800" stroke-width="1.5" stroke-linecap="round" stroke-linejoin="round"/>
<path id="Stroke 3" d="M6.32251 9.91711L8.21451 11.8101L12.1125 7.91211" stroke="#FF8800" stroke-width="1.5" stroke-linecap="round" stroke-linejoin="round"/>
</g>
</svg>
