<svg width="18" height="21" viewBox="0 0 18 21" fill="none" xmlns="http://www.w3.org/2000/svg">
<g id="Shield Done">
<path id="Stroke 1" fill-rule="evenodd" clip-rule="evenodd" d="M15.865 3.12401C16.302 3.27701 16.594 3.68901 16.594 4.15201V10.925C16.594 12.818 15.906 14.625 14.691 16.025C14.08 16.73 13.307 17.279 12.486 17.723L8.928 19.645L5.364 17.722C4.542 17.278 3.768 16.73 3.156 16.024C1.94 14.624 1.25 12.816 1.25 10.921V4.15201C1.25 3.68901 1.542 3.27701 1.979 3.12401L8.561 0.811012C8.795 0.729012 9.05 0.729012 9.283 0.811012L15.865 3.12401Z" stroke="#FF8800" stroke-width="1.5" stroke-linecap="round" stroke-linejoin="round"/>
<path id="Stroke 3" d="M6.32251 9.91809L8.21451 11.8111L12.1125 7.91309" stroke="#FF8800" stroke-width="1.5" stroke-linecap="round" stroke-linejoin="round"/>
</g>
</svg>
