<svg width="24" height="24" viewBox="0 0 24 24" fill="none" xmlns="http://www.w3.org/2000/svg">
<g id="solar:fire-line-duotone">
<g id="Group">
<path id="Vector" d="M20 13.1118C20 20.2228 13.956 22.0008 10.933 22.0008C8.29 22.0008 3 20.2228 3 13.1118C3 10.3298 4.461 8.46178 5.86 7.39578C6.638 6.80178 7.63 7.39278 7.73 8.36678L7.816 9.20478C7.921 10.2248 8.849 11.0618 9.709 10.5028C11.394 9.40778 12 6.77578 12 5.33378V5.01078C12 3.58078 13.444 2.66078 14.602 3.49878C17.165 5.35078 20 8.58477 20 13.1108V13.1118Z" stroke="#FF8800" stroke-width="1.5"/>
<path id="Vector_2" opacity="0.5" d="M8 18.4458C8 21.2898 10.489 22.0008 11.733 22.0008C12.823 22.0008 15 21.2898 15 18.4458C15 17.3438 14.41 16.6008 13.84 16.1718C13.442 15.8728 12.883 16.1418 12.746 16.6208C12.568 17.2448 11.923 17.6368 11.594 17.0768C11.294 16.5648 11.294 15.7968 11.294 15.3338C11.294 14.6978 10.654 14.2858 10.139 14.6598C9.106 15.4098 8 16.6808 8 18.4458Z" stroke="#FF8800" stroke-width="1.5"/>
</g>
</g>
</svg>
