<svg width="18" height="19" viewBox="0 0 18 19" fill="none" xmlns="http://www.w3.org/2000/svg">
<g id="sorting">
<g id="Group 159">
<path id="Vector 8 (Stroke)" fill-rule="evenodd" clip-rule="evenodd" d="M17.2812 5.81941C17.2812 6.32751 16.8694 6.7394 16.3613 6.7394L9.00129 6.7394C8.49319 6.7394 8.0813 6.32751 8.0813 5.81941C8.0813 5.31131 8.49319 4.89941 9.00129 4.89941L16.3613 4.89941C16.8694 4.89941 17.2812 5.31131 17.2812 5.81941Z" fill="#FF8800"/>
<path id="Vector 9 (Stroke)" fill-rule="evenodd" clip-rule="evenodd" d="M14.8301 9.50007C14.8301 10.0082 14.4182 10.4201 13.9101 10.4201L9.00344 10.4201C8.49534 10.4201 8.08345 10.0082 8.08345 9.50007C8.08345 8.99197 8.49534 8.58008 9.00344 8.58008L13.9101 8.58008C14.4182 8.58008 14.8301 8.99197 14.8301 9.50007Z" fill="#FF8800"/>
<path id="Vector 7 (Stroke)" fill-rule="evenodd" clip-rule="evenodd" d="M12.3711 13.1798C12.3711 13.6879 11.9592 14.0998 11.4511 14.0998L8.99778 14.0998C8.48968 14.0998 8.07778 13.6879 8.07778 13.1798C8.07778 12.6717 8.48968 12.2598 8.99778 12.2598L11.4511 12.2598C11.9592 12.2598 12.3711 12.6717 12.3711 13.1798Z" fill="#FF8800"/>
<path id="Vector 7 (Stroke)_2" fill-rule="evenodd" clip-rule="evenodd" d="M3.48054 4.89941C3.98864 4.89941 4.40054 5.31131 4.40054 5.81941V15.0194C4.40054 15.5275 3.98864 15.9394 3.48054 15.9394C2.97244 15.9394 2.56055 15.5275 2.56055 15.0194V5.81941C2.56055 5.31131 2.97244 4.89941 3.48054 4.89941Z" fill="#FF8800"/>
<path id="Vector 8 (Stroke)_2" fill-rule="evenodd" clip-rule="evenodd" d="M2.83015 3.32903C3.18943 2.96975 3.77194 2.96975 4.13122 3.32903L5.97121 5.16902C6.33049 5.5283 6.33049 6.11081 5.97121 6.47009C5.61193 6.82937 5.02942 6.82937 4.67014 6.47009L3.48069 5.28063L2.29123 6.47009C1.93195 6.82937 1.34944 6.82937 0.990163 6.47009C0.630883 6.11081 0.630883 5.5283 0.990163 5.16902L2.83015 3.32903Z" fill="#FF8800"/>
</g>
</g>
</svg>
