<svg width="14" height="13" viewBox="0 0 14 13" fill="none" xmlns="http://www.w3.org/2000/svg">
<g id="Star">
<path id="Fill 1" opacity="0.5" d="M7.65066 0.57558L9.13498 3.55843C9.24434 3.77454 9.45305 3.92462 9.69377 3.95797L13.0278 4.44355C13.2225 4.47089 13.3992 4.57361 13.5186 4.73036C13.6366 4.8851 13.6873 5.0812 13.6586 5.27397C13.6353 5.43405 13.5599 5.58213 13.4446 5.69552L11.0287 8.03737C10.852 8.20079 10.772 8.44291 10.8147 8.6797L11.4095 11.972C11.4728 12.3696 11.2094 12.7444 10.8147 12.8198C10.652 12.8458 10.4853 12.8185 10.3386 12.7438L7.3646 11.1943C7.14389 11.0829 6.88317 11.0829 6.66245 11.1943L3.68848 12.7438C3.32307 12.9379 2.8703 12.8058 2.66693 12.4456C2.59158 12.3022 2.56491 12.1388 2.58958 11.9794L3.18437 8.68637C3.22705 8.45025 3.14636 8.20679 2.97033 8.04338L0.554474 5.70285C0.267079 5.42538 0.258411 4.96848 0.535137 4.681C0.541138 4.675 0.547806 4.66833 0.554474 4.66166C0.669166 4.54493 0.819865 4.47089 0.982566 4.45155L4.31661 3.9653C4.55667 3.93129 4.76538 3.78254 4.8754 3.5651L6.30638 0.57558C6.43374 0.31945 6.69779 0.160035 6.98452 0.166705H7.07387C7.32259 0.196721 7.53931 0.350799 7.65066 0.57558Z" fill="#FF8800"/>
<path id="Fill 4" d="M6.99447 11.1112C6.86534 11.1153 6.73953 11.1499 6.62637 11.212L3.66694 12.7579C3.30484 12.9307 2.87151 12.7966 2.66849 12.4503C2.59327 12.3089 2.56598 12.1468 2.59127 11.988L3.18236 8.70194C3.2223 8.46308 3.14242 8.22021 2.96869 8.05207L0.551755 5.71215C0.264864 5.43126 0.259539 4.97021 0.540439 4.68264C0.544433 4.67864 0.547761 4.6753 0.551755 4.67197C0.666245 4.55854 0.814016 4.48381 0.973104 4.46046L4.30995 3.96939C4.55158 3.9387 4.76125 3.78791 4.86776 3.56906L6.31818 0.541916C6.45597 0.297716 6.72023 0.152263 6.9998 0.167609C6.99447 0.365772 6.99447 10.9765 6.99447 11.1112Z" fill="#FF8800"/>
</g>
</svg>
