<svg width="24" height="25" viewBox="0 0 24 25" fill="none" xmlns="http://www.w3.org/2000/svg">
<g id="solar:fire-line-duotone">
<g id="Group">
<path id="Vector" d="M20 13.6108C20 20.7218 13.956 22.4998 10.933 22.4998C8.29 22.4998 3 20.7218 3 13.6108C3 10.8288 4.461 8.9608 5.86 7.8948C6.638 7.3008 7.63 7.8918 7.73 8.8658L7.816 9.7038C7.921 10.7238 8.849 11.5608 9.709 11.0018C11.394 9.9068 12 7.2748 12 5.8328V5.5098C12 4.0798 13.444 3.1598 14.602 3.9978C17.165 5.8498 20 9.0838 20 13.6098V13.6108Z" stroke="#FF8800" stroke-width="1.5"/>
<path id="Vector_2" opacity="0.5" d="M8 18.9448C8 21.7888 10.489 22.4998 11.733 22.4998C12.823 22.4998 15 21.7888 15 18.9448C15 17.8428 14.41 17.0998 13.84 16.6708C13.442 16.3718 12.883 16.6408 12.746 17.1198C12.568 17.7438 11.923 18.1358 11.594 17.5758C11.294 17.0638 11.294 16.2958 11.294 15.8328C11.294 15.1968 10.654 14.7848 10.139 15.1588C9.106 15.9088 8 17.1798 8 18.9448Z" stroke="#FF8800" stroke-width="1.5"/>
</g>
</g>
</svg>
