<svg width="20" height="20" viewBox="0 0 20 20" fill="none" xmlns="http://www.w3.org/2000/svg">
<g id="Image">
<path id="Stroke 1" fill-rule="evenodd" clip-rule="evenodd" d="M18.4432 6.24042V13.7122C18.4432 16.4805 16.7107 18.433 13.9423 18.433H6.01315C3.24482 18.433 1.52148 16.4805 1.52148 13.7122V6.24042C1.52148 3.47209 3.25398 1.52051 6.01315 1.52051H13.9423C16.7107 1.52051 18.4432 3.47209 18.4432 6.24042Z" stroke="#FF8800" stroke-width="1.375" stroke-linecap="round" stroke-linejoin="round"/>
<path id="Stroke 3" opacity="0.4" d="M3.8418 14.0611L5.24246 12.5825C5.72921 12.0665 6.54046 12.0417 7.05746 12.5275C7.07305 12.5431 7.91638 13.4002 7.91638 13.4002C8.42513 13.9181 9.25655 13.9264 9.77446 13.4185C9.80838 13.3855 11.914 10.8317 11.914 10.8317C12.4566 10.1726 13.431 10.0782 14.091 10.6218C14.135 10.6585 16.1242 12.6999 16.1242 12.6999" stroke="#FF8800" stroke-width="1.375" stroke-linecap="round" stroke-linejoin="round"/>
<path id="Stroke 5" opacity="0.4" fill-rule="evenodd" clip-rule="evenodd" d="M8.45395 7.37151C8.45395 8.25976 7.73436 8.97934 6.84611 8.97934C5.95786 8.97934 5.23828 8.25976 5.23828 7.37151C5.23828 6.48326 5.95786 5.76367 6.84611 5.76367C7.73436 5.76459 8.45395 6.48326 8.45395 7.37151Z" stroke="#FF8800" stroke-width="1.375" stroke-linecap="round" stroke-linejoin="round"/>
</g>
</svg>
