<svg width="14" height="13" viewBox="0 0 14 13" fill="none" xmlns="http://www.w3.org/2000/svg">
<g id="Star">
<path id="Fill 1" d="M7.65091 0.57558L9.13523 3.55843C9.24458 3.77454 9.45329 3.92462 9.69401 3.95797L13.0281 4.44355C13.2228 4.47089 13.3995 4.57361 13.5188 4.73036C13.6369 4.8851 13.6875 5.0812 13.6589 5.27397C13.6355 5.43405 13.5602 5.58213 13.4448 5.69552L11.029 8.03737C10.8523 8.20079 10.7722 8.44291 10.8149 8.6797L11.4097 11.972C11.4731 12.3696 11.2097 12.7444 10.8149 12.8198C10.6522 12.8458 10.4855 12.8185 10.3388 12.7438L7.36485 11.1943C7.14413 11.0829 6.88341 11.0829 6.6627 11.1943L3.68872 12.7438C3.32331 12.9379 2.87055 12.8058 2.66717 12.4456C2.59182 12.3022 2.56515 12.1388 2.58982 11.9794L3.18462 8.68637C3.22729 8.45025 3.14661 8.20679 2.97057 8.04338L0.554719 5.70285C0.267323 5.42538 0.258655 4.96848 0.535381 4.681C0.541382 4.675 0.54805 4.66833 0.554719 4.66166C0.66941 4.54493 0.820109 4.47089 0.98281 4.45155L4.31686 3.9653C4.55691 3.93129 4.76562 3.78254 4.87565 3.5651L6.30662 0.57558C6.43398 0.31945 6.69804 0.160035 6.98476 0.166705H7.07412C7.32284 0.196721 7.53955 0.350799 7.65091 0.57558" fill="#FF8800"/>
<path id="Fill 4" d="M6.99471 11.1112C6.86558 11.1153 6.73978 11.1499 6.62662 11.212L3.66719 12.7579C3.30508 12.9307 2.87175 12.7966 2.66873 12.4503C2.59351 12.3089 2.56622 12.1468 2.59152 11.988L3.1826 8.70194C3.22254 8.46308 3.14266 8.22021 2.96893 8.05207L0.551999 5.71215C0.265109 5.43126 0.259783 4.97021 0.540683 4.68264C0.544677 4.67864 0.548005 4.6753 0.551999 4.67197C0.666489 4.55854 0.81426 4.48381 0.973348 4.46046L4.31019 3.96939C4.55182 3.9387 4.7615 3.78791 4.868 3.56906L6.31843 0.541916C6.45621 0.297716 6.72047 0.152263 7.00004 0.167609C6.99472 0.365772 6.99471 10.9765 6.99471 11.1112" fill="#FF8800"/>
</g>
</svg>
