<svg width="14" height="13" viewBox="0 0 14 13" fill="none" xmlns="http://www.w3.org/2000/svg">
<g id="Star">
<path id="Fill 1" d="M7.65079 0.575092L9.1351 3.55794C9.24446 3.77405 9.45317 3.92413 9.69389 3.95748L13.0279 4.44306C13.2226 4.47041 13.3994 4.57312 13.5187 4.72987C13.6367 4.88462 13.6874 5.08072 13.6587 5.27348C13.6354 5.43356 13.5601 5.58164 13.4447 5.69503L11.0288 8.03689C10.8521 8.2003 10.7721 8.44242 10.8148 8.67921L11.4096 11.9716C11.4729 12.3691 11.2095 12.7439 10.8148 12.8193C10.6521 12.8453 10.4854 12.818 10.3387 12.7433L7.36472 11.1938C7.14401 11.0824 6.88329 11.0824 6.66257 11.1938L3.6886 12.7433C3.32319 12.9374 2.87043 12.8053 2.66705 12.4451C2.5917 12.3017 2.56503 12.1383 2.5897 11.9789L3.18449 8.68588C3.22717 8.44976 3.14649 8.2063 2.97045 8.04289L0.554596 5.70236C0.267201 5.42489 0.258533 4.96799 0.535259 4.68051C0.54126 4.67451 0.547928 4.66784 0.554596 4.66117C0.669288 4.54444 0.819987 4.47041 0.982688 4.45106L4.31674 3.96481C4.55679 3.9308 4.7655 3.78206 4.87552 3.56461L6.3065 0.575092C6.43386 0.318961 6.69791 0.159547 6.98464 0.166217H7.074C7.32272 0.196232 7.53943 0.350311 7.65079 0.575092Z" fill="#FF8800"/>
<path id="Fill 4" d="M6.99459 11.1108C6.86546 11.1148 6.73965 11.1495 6.62649 11.2115L3.66707 12.7574C3.30496 12.9303 2.87163 12.7961 2.66861 12.4499C2.59339 12.3084 2.5661 12.1463 2.59139 11.9875L3.18248 8.70145C3.22242 8.46259 3.14254 8.21972 2.96881 8.05158L0.551877 5.71167C0.264987 5.43077 0.259661 4.96972 0.540561 4.68216C0.544555 4.67815 0.547883 4.67482 0.551877 4.67148C0.666367 4.55805 0.814138 4.48333 0.973226 4.45997L4.31007 3.9689C4.5517 3.93821 4.76138 3.78742 4.86788 3.56858L6.3183 0.541428C6.45609 0.297228 6.72035 0.151775 6.99992 0.167121C6.99459 0.365283 6.99459 10.976 6.99459 11.1108Z" fill="#FF8800"/>
</g>
</svg>
