<svg width="64" height="64" viewBox="0 0 64 64" fill="none" xmlns="http://www.w3.org/2000/svg">
<path opacity="0.4" d="M43.574 5.33301H20.454C11.414 5.33301 5.33398 11.6797 5.33398 21.1197V42.9063C5.33398 52.3197 11.414 58.6663 20.454 58.6663H43.574C52.614 58.6663 58.6673 52.3197 58.6673 42.9063V21.1197C58.6673 11.6797 52.614 5.33301 43.574 5.33301Z" fill="#FF8800"/>
<path d="M28.8345 40.6619C28.2372 40.6619 27.6399 40.4352 27.1839 39.9792L20.8559 33.6512C19.9439 32.7392 19.9439 31.2619 20.8559 30.3526C21.7679 29.4406 23.2425 29.4379 24.1545 30.3499L28.8345 35.0299L39.8425 24.0219C40.7545 23.1099 42.2292 23.1099 43.1412 24.0219C44.0532 24.9339 44.0532 26.4112 43.1412 27.3232L30.4852 39.9792C30.0292 40.4352 29.4319 40.6619 28.8345 40.6619Z" fill="#FF8800"/>
</svg>
