<svg width="72" height="23" viewBox="0 0 72 23" fill="none" xmlns="http://www.w3.org/2000/svg">
<g id="Frame">
<path id="Vector" d="M66.838 0.770055H62.334C60.972 0.770055 59.924 1.19005 59.296 2.55105L50.706 22.1411H56.781C56.781 22.1411 57.829 19.5231 58.038 18.8941H65.477C65.686 19.6281 66.21 22.0371 66.21 22.0371H71.658L66.838 0.771055V0.770055ZM59.715 14.4941C60.238 13.2371 62.019 8.52305 62.019 8.52305C62.019 8.62805 62.543 7.26605 62.753 6.53305L63.172 8.41806C63.172 8.41806 64.324 13.5521 64.534 14.5991H59.714L59.715 14.4941ZM51.124 15.1231C51.124 19.5231 47.143 22.4561 40.962 22.4561C38.343 22.4561 35.829 21.9331 34.467 21.3041L35.305 16.4851L36.038 16.7991C37.924 17.6371 39.181 17.9521 41.486 17.9521C43.162 17.9521 44.943 17.3231 44.943 15.8561C44.943 14.9141 44.21 14.2861 41.905 13.2381C39.705 12.1901 36.772 10.5141 36.772 7.47605C36.772 3.28605 40.857 0.456055 46.619 0.456055C48.819 0.456055 50.705 0.876055 51.857 1.39905L51.019 6.00905L50.6 5.58906C49.553 5.17105 48.19 4.75205 46.2 4.75205C44 4.85705 42.952 5.79906 42.952 6.63805C42.952 7.58005 44.21 8.31405 46.2 9.25705C49.552 10.8281 51.124 12.6091 51.124 15.1231ZM0 0.980055L0.105 0.563055H9.115C10.371 0.563055 11.315 0.982055 11.629 2.34305L13.619 11.7721C11.629 6.74205 7.019 2.65605 0 0.980055Z" fill="white"/>
<path id="Vector_2" d="M26.295 0.770992L17.181 22.038H11L5.76196 4.22799C9.53296 6.63799 12.676 10.409 13.828 13.028L14.457 15.228L20.114 0.666992H26.295V0.769992V0.770992ZM28.706 0.666992H34.468L30.8 22.037H25.038L28.706 0.666992Z" fill="white"/>
</g>
</svg>
