<svg width="24" height="24" viewBox="0 0 24 24" fill="none" xmlns="http://www.w3.org/2000/svg">
<g id="Iconly/Bulk/Work">
<g id="Work">
<path id="Fill 1" opacity="0.4" d="M2.00024 11.0781C2.05024 13.4161 2.19024 17.4151 2.21024 17.8561C2.28124 18.7991 2.64224 19.7521 3.20424 20.4241C3.98624 21.3671 4.94924 21.7881 6.29224 21.7881C8.14824 21.7981 10.1942 21.7981 12.1812 21.7981C14.1762 21.7981 16.1122 21.7981 17.7472 21.7881C19.0712 21.7881 20.0642 21.3561 20.8362 20.4241C21.3982 19.7521 21.7592 18.7891 21.8102 17.8561C21.8302 17.4851 21.9302 13.1441 21.9902 11.0781H2.00024Z" fill="#FF8800"/>
<path id="Fill 4" d="M11.2454 15.3838V16.6778C11.2454 17.0918 11.5814 17.4278 11.9954 17.4278C12.4094 17.4278 12.7454 17.0918 12.7454 16.6778V15.3838C12.7454 14.9698 12.4094 14.6338 11.9954 14.6338C11.5814 14.6338 11.2454 14.9698 11.2454 15.3838Z" fill="#FF8800"/>
<path id="Fill 6" fill-rule="evenodd" clip-rule="evenodd" d="M10.2112 14.556C10.1112 14.919 9.76224 15.151 9.38424 15.101C6.83324 14.745 4.39524 13.84 2.33724 12.481C2.12624 12.343 2.00024 12.107 2.00024 11.855V8.389C2.00024 6.289 3.71224 4.581 5.81724 4.581H7.78424C7.97224 3.129 9.20224 2 10.7042 2H13.2862C14.7872 2 16.0182 3.129 16.2062 4.581H18.1832C20.2822 4.581 21.9902 6.289 21.9902 8.389V11.855C21.9902 12.107 21.8632 12.342 21.6542 12.481C19.5922 13.846 17.1442 14.755 14.5762 15.11C14.5412 15.115 14.5072 15.117 14.4732 15.117C14.1342 15.117 13.8312 14.888 13.7462 14.552C13.5442 13.756 12.8212 13.199 11.9902 13.199C11.1482 13.199 10.4332 13.744 10.2112 14.556ZM13.2862 3.5H10.7042C10.0312 3.5 9.46924 3.96 9.30124 4.581H14.6882C14.5202 3.96 13.9582 3.5 13.2862 3.5Z" fill="#FF8800"/>
</g>
</g>
</svg>
