<svg width="10" height="12" viewBox="0 0 10 12" fill="none" xmlns="http://www.w3.org/2000/svg">
<path d="M2.08 12V10H0.8V8.88H2.08V7.52H0.8V6.4H2.08V0.799999H6.24C7.27467 0.799999 8.11733 1.12 8.768 1.76C9.42933 2.38933 9.76 3.18933 9.76 4.16C9.76 5.13067 9.42933 5.936 8.768 6.576C8.11733 7.20533 7.27467 7.52 6.24 7.52H3.28V8.88H7.2V10H3.28V12H2.08ZM3.28 6.4H6.24C6.912 6.4 7.46667 6.18667 7.904 5.76C8.34133 5.33333 8.56 4.8 8.56 4.16C8.56 3.52 8.34133 2.98667 7.904 2.56C7.46667 2.13333 6.912 1.92 6.24 1.92H3.28V6.4Z" fill="#CCCCCC"/>
</svg>
