<svg width="20" height="20" viewBox="0 0 20 20" fill="none" xmlns="http://www.w3.org/2000/svg">
<path d="M16.6667 10.9257C16.6667 16.8515 11.63 18.3332 9.11083 18.3332C6.90833 18.3332 2.5 16.8515 2.5 10.9257C2.5 8.60733 3.7175 7.05067 4.88333 6.16233C5.53167 5.66733 6.35833 6.15983 6.44167 6.9715L6.51333 7.66983C6.60083 8.51983 7.37417 9.21733 8.09083 8.7515C9.495 7.839 10 5.64567 10 4.444V4.17483C10 2.98317 11.2033 2.2165 12.1683 2.91483C14.3042 4.45817 16.6667 7.15317 16.6667 10.9248V10.9257Z" stroke="#CCCCCC" stroke-width="1.25"/>
<path opacity="0.5" d="M6.66666 15.3707C6.66666 17.7407 8.74082 18.3332 9.77749 18.3332C10.6858 18.3332 12.5 17.7407 12.5 15.3707C12.5 14.4523 12.0083 13.8332 11.5333 13.4757C11.2017 13.2265 10.7358 13.4507 10.6217 13.8498C10.4733 14.3698 9.93582 14.6965 9.66166 14.2298C9.41166 13.8032 9.41166 13.1632 9.41166 12.7773C9.41166 12.2473 8.87832 11.904 8.44916 12.2157C7.58832 12.8407 6.66666 13.8998 6.66666 15.3707Z" stroke="#CCCCCC" stroke-width="1.25"/>
</svg>
